<?xml version="1.0" standalone="no"?>
<!DOCTYPE svg PUBLIC "-//W3C//DTD SVG 20010904//EN"
 "http://www.w3.org/TR/2001/REC-SVG-20010904/DTD/svg10.dtd">
<svg version="1.0" xmlns="http://www.w3.org/2000/svg"
 width="168.000000pt" height="77.000000pt" viewBox="0 0 168.000000 77.000000"
 preserveAspectRatio="xMidYMid meet">

<g transform="translate(0.000000,77.000000) scale(0.100000,-0.100000)"
fill="#000000" stroke="none">
<path d="M0 505 l0 -265 95 0 94 0 3 102 3 102 209 -222 208 -222 74 0 74 0 0
385 0 385 -95 0 -95 0 -2 -215 -3 -214 -204 214 -205 215 -78 0 -78 0 0 -265z
m740 46 c0 -109 3 -213 6 -230 5 -26 3 -31 -12 -31 -18 0 -19 10 -16 220 l3
220 -56 0 -57 0 7 -30 c6 -26 4 -30 -15 -30 -18 0 -21 4 -16 23 3 12 6 30 6
40 0 15 10 17 75 17 l75 0 0 -199z m-470 65 c63 -66 163 -172 224 -234 60 -61
107 -114 105 -116 -2 -2 -104 101 -227 230 l-224 234 -55 0 -55 0 4 -70 c3
-55 1 -70 -10 -70 -9 0 -12 6 -8 16 3 9 6 42 6 75 l0 59 63 -1 62 -2 115 -121z
m-6 -58 c110 -116 126 -137 126 -167 0 -29 16 -50 121 -162 93 -99 128 -129
147 -129 24 0 24 2 19 45 -6 41 -5 45 14 45 17 0 20 -4 15 -22 -3 -13 -6 -38
-6 -55 0 -31 -2 -33 -34 -33 -29 0 -47 14 -155 125 -117 121 -141 154 -141
196 0 26 -238 279 -262 279 -15 0 -18 -9 -18 -57 0 -44 -5 -63 -25 -89 -23
-30 -25 -41 -25 -143 l0 -111 60 0 60 0 -6 30 c-5 24 -3 30 11 30 13 0 16 -5
11 -22 -3 -13 -6 -31 -6 -41 0 -16 -8 -18 -72 -15 l-73 3 -3 118 c-3 112 -2
119 23 151 20 27 25 44 25 94 l0 62 34 0 c31 0 47 -13 160 -132z m426 -75 c0
-204 0 -206 25 -239 22 -29 25 -42 25 -123 l0 -91 -62 0 -63 1 -220 231 -220
231 -5 -49 c-3 -30 -14 -61 -28 -78 -12 -16 -22 -25 -22 -21 0 4 9 18 20 32
14 19 20 41 20 79 0 30 3 54 8 53 4 -1 106 -106 227 -234 l220 -233 58 -1 57
-1 0 86 c0 76 -3 89 -25 118 -25 33 -25 35 -25 234 0 173 -2 202 -15 202 -8 0
-15 -8 -15 -17 -1 -10 -12 -31 -26 -48 -18 -20 -22 -23 -15 -8 6 12 16 25 21
28 6 3 10 17 10 31 0 19 5 24 25 24 l25 0 0 -207z m-455 38 c71 -69 103 -107
96 -114 -6 -6 -29 12 -68 54 -32 35 -75 82 -96 104 l-38 40 3 -97 c4 -91 3
-98 -15 -98 -15 0 -18 5 -13 23 3 12 6 62 6 110 0 50 4 87 9 85 5 -1 57 -50
116 -107z m417 -158 c-2 -115 -6 -210 -9 -213 -3 -3 -46 38 -96 90 -50 52 -96
95 -102 95 -5 0 -10 7 -10 15 0 8 7 15 15 15 8 0 14 -5 13 -11 -1 -6 39 -51
88 -100 l90 -89 -3 203 c-2 130 1 202 7 202 6 0 9 -74 7 -207z m-570 43 c-4
-72 -4 -74 19 -79 22 -4 22 -4 -3 -6 -27 -1 -28 0 -28 57 0 31 -3 67 -6 80 -5
15 -2 22 8 22 12 0 14 -13 10 -74z"/>
<path d="M870 280 l0 -70 43 0 c51 0 87 30 87 73 0 42 -32 67 -85 67 l-45 0 0
-70z m100 40 c41 -41 7 -104 -53 -98 -32 3 -32 4 -35 61 l-3 57 36 0 c22 0 43
-8 55 -20z"/>
<path d="M1140 328 c-26 -28 -26 -58 1 -92 14 -18 30 -26 53 -26 38 0 56 15
56 47 0 32 -18 29 -22 -4 -4 -40 -48 -44 -77 -7 -37 47 -4 100 57 90 19 -3 30
-1 27 5 -12 18 -74 10 -95 -13z"/>
<path d="M1392 343 c26 -4 27 -7 31 -71 l3 -67 2 67 c2 64 3 67 30 71 15 2 0
4 -33 4 -33 0 -48 -2 -33 -4z"/>
<path d="M1600 280 l0 -70 43 2 c36 1 38 2 10 5 l-33 4 0 65 c0 36 -4 64 -10
64 -6 0 -10 -30 -10 -70z"/>
<path d="M0 100 l0 -100 95 0 95 0 0 100 0 100 -95 0 -95 0 0 -100z m170 0 l0
-70 -70 0 -70 0 0 70 0 70 70 0 70 0 0 -70z"/>
<path d="M40 100 l0 -60 60 0 60 0 0 60 0 60 -60 0 -60 0 0 -60z m90 0 c0 -27
-3 -30 -30 -30 -27 0 -30 3 -30 30 0 27 3 30 30 30 27 0 30 -3 30 -30z"/>
<path d="M80 100 c0 -5 7 -10 15 -10 8 0 15 5 15 10 0 6 -7 10 -15 10 -8 0
-15 -4 -15 -10z"/>
</g>
</svg>
